<?xml version="1.0" ?><svg id="Layer_1" style="enable-background:new 0 0 120 120;" version="1.1" viewBox="0 0 120 120" xml:space="preserve" xmlns="http://www.w3.org/2000/svg" xmlns:xlink="http://www.w3.org/1999/xlink"><style type="text/css">
	.st0{fill:#FFBC51;}
</style><g><path class="st0" d="M22.2,68.5c1.1,0,2.1-0.4,2.9-1.1L60,39.8l34.9,27.6c0.8,0.7,1.8,1.1,2.9,1.1c1.3,0,2.4-0.5,3.3-1.5   c0.7-0.8,1.1-1.8,1.1-2.9c0-1.3-0.5-2.4-1.5-3.3l-37.6-30c-0.1-0.1-0.2-0.2-0.4-0.3c-0.1-0.1-0.2-0.2-0.4-0.3   C62.2,30.1,62.1,30,62,30c-0.1-0.1-0.3-0.1-0.4-0.2c-0.1-0.1-0.3-0.1-0.4-0.1c-0.1,0-0.3-0.1-0.4-0.1c-0.1,0-0.3-0.1-0.4-0.1   c-0.1,0-0.2,0-0.4,0h-0.1c-0.1,0-0.2,0-0.4,0c-0.1,0-0.3,0-0.4,0.1c-0.1,0-0.3,0.1-0.4,0.1c-0.1,0-0.3,0.1-0.4,0.1   C58.2,29.9,58.1,30,58,30c-0.1,0.1-0.2,0.1-0.3,0.2s-0.3,0.2-0.4,0.3c-0.1,0.1-0.2,0.2-0.4,0.3L19.3,60.9c-1.8,1.6-2,4.4-0.3,6.2   C19.8,68,21,68.5,22.2,68.5z"/><path class="st0" d="M63.1,52.7c-0.1-0.1-0.2-0.2-0.4-0.3c-0.1-0.1-0.2-0.2-0.4-0.3c0,0-0.2-0.1-0.3-0.1c-0.1-0.1-0.3-0.1-0.4-0.2   c-0.1-0.1-0.3-0.1-0.4-0.1c-0.1,0-0.3-0.1-0.4-0.1c-0.1,0-0.3-0.1-0.4-0.1c-0.1,0-0.2,0-0.4,0h-0.1c-0.1,0-0.2,0-0.4,0   c-0.1,0-0.3,0-0.4,0.1c-0.1,0-0.3,0.1-0.4,0.1c-0.1,0-0.3,0.1-0.4,0.1c-0.1,0.1-0.3,0.1-0.4,0.2c-0.1,0.1-0.2,0.1-0.3,0.2   c-0.1,0.1-0.3,0.2-0.4,0.3c-0.1,0.1-0.2,0.2-0.4,0.3l-37.5,30c-1.8,1.6-2,4.4-0.3,6.2c0.8,0.9,2,1.5,3.3,1.5c1.1,0,2.1-0.4,2.9-1.1   L60,61.7l34.9,27.6c0.8,0.7,1.8,1.1,2.9,1.1c1.3,0,2.4-0.5,3.3-1.5c0.7-0.8,1.1-1.8,1.1-2.9c0-1.3-0.5-2.4-1.5-3.3L63.1,52.7z"/></g></svg>